# MagicaVoxel @ Ephtracy

# group
g fleche_tp

# material
mtllib fleche_tp.mtl
usemtl palette

# normals
vn -1 0 0
vn 1 0 0
vn 0 0 1
vn 0 0 -1
vn 0 -1 0
vn 0 1 0

# texcoords
vt 0.779297 0.5
vt 0.798828 0.5

# verts
v -6 3 1
v -6 3 -0
v -6 5 1
v -6 5 -0
v -5 2 1
v -5 2 -0
v -5 3 1
v -5 3 -0
v -4 1 1
v -4 1 -0
v -4 2 1
v -4 2 -0
v -3 0 1
v -3 0 -0
v -3 1 1
v -3 1 -0
v -3 5 1
v -3 5 -0
v -3 6 1
v -3 6 -0
v -3 10 1
v -3 10 -0
v -3 12 1
v -3 12 -0
v -1 3 1
v -1 3 -0
v -1 4 1
v -1 4 -0
v 0 4 1
v 0 4 -0
v 0 5 1
v 0 5 -0
v -4 4 1
v -4 4 -0
v -4 5 1
v -4 5 -0
v -3 3 1
v -3 3 -0
v -3 4 1
v -3 4 -0
v -1 0 1
v -1 0 -0
v -1 1 1
v -1 1 -0
v -1 5 1
v -1 5 -0
v -1 7 1
v -1 7 -0
v -1 11 1
v -1 11 -0
v -1 12 1
v -1 12 -0
v 0 1 1
v 0 1 -0
v 0 2 1
v 0 2 -0
v 1 2 1
v 1 2 -0
v 1 3 1
v 1 3 -0
v 2 3 1
v 2 3 -0
v 2 5 1
v 2 5 -0
v -6 3 1
v -6 5 1
v -5 2 1
v -5 3 1
v -5 5 1
v -4 1 1
v -4 2 1
v -4 3 1
v -4 4 1
v -4 5 1
v -3 0 1
v -3 1 1
v -3 2 1
v -3 3 1
v -3 4 1
v -3 5 1
v -3 6 1
v -3 10 1
v -3 12 1
v -2 6 1
v -2 7 1
v -2 10 1
v -2 11 1
v -1 0 1
v -1 1 1
v -1 2 1
v -1 3 1
v -1 4 1
v -1 5 1
v -1 7 1
v -1 11 1
v -1 12 1
v 0 1 1
v 0 2 1
v 0 3 1
v 0 4 1
v 0 5 1
v 1 2 1
v 1 3 1
v 1 5 1
v 2 3 1
v 2 5 1
v -6 3 -0
v -6 5 -0
v -5 2 -0
v -5 3 -0
v -5 5 -0
v -4 1 -0
v -4 2 -0
v -4 3 -0
v -4 4 -0
v -4 5 -0
v -3 0 -0
v -3 1 -0
v -3 2 -0
v -3 3 -0
v -3 4 -0
v -3 5 -0
v -3 6 -0
v -3 10 -0
v -3 12 -0
v -2 6 -0
v -2 7 -0
v -2 10 -0
v -2 11 -0
v -1 0 -0
v -1 1 -0
v -1 2 -0
v -1 3 -0
v -1 4 -0
v -1 5 -0
v -1 7 -0
v -1 11 -0
v -1 12 -0
v 0 1 -0
v 0 2 -0
v 0 3 -0
v 0 4 -0
v 0 5 -0
v 1 2 -0
v 1 3 -0
v 1 5 -0
v 2 3 -0
v 2 5 -0
v -3 0 1
v -1 0 1
v -3 0 -0
v -1 0 -0
v -4 1 1
v -3 1 1
v -1 1 1
v 0 1 1
v -4 1 -0
v -3 1 -0
v -1 1 -0
v 0 1 -0
v -5 2 1
v -4 2 1
v 0 2 1
v 1 2 1
v -5 2 -0
v -4 2 -0
v 0 2 -0
v 1 2 -0
v -6 3 1
v -5 3 1
v 1 3 1
v 2 3 1
v -6 3 -0
v -5 3 -0
v 1 3 -0
v 2 3 -0
v -3 5 1
v -1 5 1
v -3 5 -0
v -1 5 -0
v -3 3 1
v -1 3 1
v -3 3 -0
v -1 3 -0
v -4 4 1
v -3 4 1
v -1 4 1
v 0 4 1
v -4 4 -0
v -3 4 -0
v -1 4 -0
v 0 4 -0
v -6 5 1
v -5 5 1
v -4 5 1
v 0 5 1
v 1 5 1
v 2 5 1
v -6 5 -0
v -5 5 -0
v -4 5 -0
v 0 5 -0
v 1 5 -0
v 2 5 -0
v -3 12 1
v -1 12 1
v -3 12 -0
v -1 12 -0

# faces
f 3/1/1 2/1/1 1/1/1
f 4/1/1 2/1/1 3/1/1
f 7/1/1 6/1/1 5/1/1
f 8/1/1 6/1/1 7/1/1
f 11/1/1 10/1/1 9/1/1
f 12/1/1 10/1/1 11/1/1
f 15/1/1 14/1/1 13/1/1
f 16/1/1 14/1/1 15/1/1
f 19/1/1 18/1/1 17/1/1
f 20/1/1 18/1/1 19/1/1
f 21/2/1 20/2/1 19/2/1
f 22/2/1 20/2/1 21/2/1
f 23/1/1 22/1/1 21/1/1
f 24/1/1 22/1/1 23/1/1
f 27/2/1 26/2/1 25/2/1
f 28/2/1 26/2/1 27/2/1
f 31/2/1 30/2/1 29/2/1
f 32/2/1 30/2/1 31/2/1
f 33/2/2 34/2/2 35/2/2
f 35/2/2 34/2/2 36/2/2
f 37/2/2 38/2/2 39/2/2
f 39/2/2 38/2/2 40/2/2
f 41/1/2 42/1/2 43/1/2
f 43/1/2 42/1/2 44/1/2
f 45/1/2 46/1/2 47/1/2
f 47/1/2 46/1/2 48/1/2
f 47/2/2 48/2/2 49/2/2
f 49/2/2 48/2/2 50/2/2
f 49/1/2 50/1/2 51/1/2
f 51/1/2 50/1/2 52/1/2
f 53/1/2 54/1/2 55/1/2
f 55/1/2 54/1/2 56/1/2
f 57/1/2 58/1/2 59/1/2
f 59/1/2 58/1/2 60/1/2
f 61/1/2 62/1/2 63/1/2
f 63/1/2 62/1/2 64/1/2
f 68/1/3 66/1/3 65/1/3
f 69/1/3 66/1/3 68/1/3
f 71/1/3 68/1/3 67/1/3
f 72/2/3 69/2/3 68/2/3
f 72/1/3 68/1/3 71/1/3
f 73/2/3 69/2/3 72/2/3
f 74/2/3 69/2/3 73/2/3
f 76/1/3 71/1/3 70/1/3
f 77/2/3 72/2/3 71/2/3
f 77/2/3 73/2/3 72/2/3
f 77/1/3 71/1/3 76/1/3
f 78/2/3 73/2/3 77/2/3
f 79/2/3 73/2/3 78/2/3
f 84/1/3 81/1/3 80/1/3
f 84/2/3 82/2/3 81/2/3
f 85/2/3 82/2/3 84/2/3
f 86/1/3 83/1/3 82/1/3
f 86/2/3 82/2/3 85/2/3
f 87/1/3 83/1/3 86/1/3
f 88/1/3 76/1/3 75/1/3
f 89/2/3 78/2/3 77/2/3
f 89/1/3 76/1/3 88/1/3
f 89/2/3 77/2/3 76/2/3
f 90/2/3 78/2/3 89/2/3
f 91/2/3 78/2/3 90/2/3
f 93/1/3 85/1/3 84/1/3
f 93/1/3 84/1/3 80/1/3
f 94/2/3 87/2/3 86/2/3
f 94/1/3 85/1/3 93/1/3
f 94/2/3 86/2/3 85/2/3
f 95/1/3 83/1/3 87/1/3
f 95/2/3 87/2/3 94/2/3
f 96/1/3 83/1/3 95/1/3
f 97/1/3 90/1/3 89/1/3
f 98/2/3 92/2/3 91/2/3
f 98/1/3 90/1/3 97/1/3
f 98/2/3 91/2/3 90/2/3
f 99/2/3 92/2/3 98/2/3
f 100/2/3 92/2/3 99/2/3
f 102/1/3 99/1/3 98/1/3
f 103/2/3 101/2/3 100/2/3
f 103/1/3 99/1/3 102/1/3
f 103/2/3 100/2/3 99/2/3
f 104/2/3 101/2/3 103/2/3
f 105/1/3 104/1/3 103/1/3
f 106/1/3 104/1/3 105/1/3
f 107/1/4 108/1/4 110/1/4
f 110/1/4 108/1/4 111/1/4
f 109/1/4 110/1/4 113/1/4
f 110/2/4 111/2/4 114/2/4
f 113/1/4 110/1/4 114/1/4
f 114/2/4 111/2/4 115/2/4
f 115/2/4 111/2/4 116/2/4
f 112/1/4 113/1/4 118/1/4
f 113/2/4 114/2/4 119/2/4
f 114/2/4 115/2/4 119/2/4
f 118/1/4 113/1/4 119/1/4
f 119/2/4 115/2/4 120/2/4
f 120/2/4 115/2/4 121/2/4
f 122/1/4 123/1/4 126/1/4
f 123/2/4 124/2/4 126/2/4
f 126/2/4 124/2/4 127/2/4
f 124/1/4 125/1/4 128/1/4
f 127/2/4 124/2/4 128/2/4
f 128/1/4 125/1/4 129/1/4
f 117/1/4 118/1/4 130/1/4
f 119/2/4 120/2/4 131/2/4
f 130/1/4 118/1/4 131/1/4
f 118/2/4 119/2/4 131/2/4
f 131/2/4 120/2/4 132/2/4
f 132/2/4 120/2/4 133/2/4
f 126/1/4 127/1/4 135/1/4
f 122/1/4 126/1/4 135/1/4
f 128/2/4 129/2/4 136/2/4
f 135/1/4 127/1/4 136/1/4
f 127/2/4 128/2/4 136/2/4
f 129/1/4 125/1/4 137/1/4
f 136/2/4 129/2/4 137/2/4
f 137/1/4 125/1/4 138/1/4
f 131/1/4 132/1/4 139/1/4
f 133/2/4 134/2/4 140/2/4
f 139/1/4 132/1/4 140/1/4
f 132/2/4 133/2/4 140/2/4
f 140/2/4 134/2/4 141/2/4
f 141/2/4 134/2/4 142/2/4
f 140/1/4 141/1/4 144/1/4
f 142/2/4 143/2/4 145/2/4
f 144/1/4 141/1/4 145/1/4
f 141/2/4 142/2/4 145/2/4
f 145/2/4 143/2/4 146/2/4
f 145/1/4 146/1/4 147/1/4
f 147/1/4 146/1/4 148/1/4
f 151/1/5 150/1/5 149/1/5
f 152/1/5 150/1/5 151/1/5
f 157/1/5 154/1/5 153/1/5
f 158/1/5 154/1/5 157/1/5
f 159/1/5 156/1/5 155/1/5
f 160/1/5 156/1/5 159/1/5
f 165/1/5 162/1/5 161/1/5
f 166/1/5 162/1/5 165/1/5
f 167/1/5 164/1/5 163/1/5
f 168/1/5 164/1/5 167/1/5
f 173/1/5 170/1/5 169/1/5
f 174/1/5 170/1/5 173/1/5
f 175/1/5 172/1/5 171/1/5
f 176/1/5 172/1/5 175/1/5
f 179/1/5 178/1/5 177/1/5
f 180/1/5 178/1/5 179/1/5
f 181/2/6 182/2/6 183/2/6
f 183/2/6 182/2/6 184/2/6
f 185/2/6 186/2/6 189/2/6
f 189/2/6 186/2/6 190/2/6
f 187/2/6 188/2/6 191/2/6
f 191/2/6 188/2/6 192/2/6
f 193/1/6 194/1/6 199/1/6
f 194/2/6 195/2/6 200/2/6
f 199/1/6 194/1/6 200/1/6
f 200/2/6 195/2/6 201/2/6
f 196/2/6 197/2/6 202/2/6
f 197/1/6 198/1/6 203/1/6
f 202/2/6 197/2/6 203/2/6
f 203/1/6 198/1/6 204/1/6
f 205/1/6 206/1/6 207/1/6
f 207/1/6 206/1/6 208/1/6
