# MagicaVoxel @ Ephtracy

# group
g item_wall

# material
mtllib item_wall.mtl
usemtl palette

# normals
vn -1 0 0
vn 1 0 0
vn 0 0 1
vn 0 0 -1
vn 0 -1 0
vn 0 1 0

# texcoords
vt 0.392578 0.5
vt 0.869141 0.5

# verts
v -20 0 -2
v -20 0 -7
v -20 0 -12
v -20 0 -17
v -20 4 -2
v -20 4 -7
v -20 4 -12
v -20 4 -17
v -20 8 -2
v -20 8 -7
v -20 8 -12
v -20 8 -17
v -20 12 -2
v -20 12 -7
v -20 12 -12
v -20 12 -17
v -20 16 -2
v -20 16 -7
v -20 16 -12
v -20 16 -17
v -20 20 -2
v -20 20 -7
v -20 20 -12
v -20 20 -17
v -20 24 -2
v -20 24 -7
v -20 24 -12
v -20 24 -17
v -20 28 -2
v -20 28 -7
v -20 28 -12
v -20 28 -17
v -20 32 -2
v -20 32 -7
v -20 32 -12
v -20 32 -17
v 15 0 -2
v 15 0 -7
v 15 0 -12
v 15 0 -17
v 15 4 -2
v 15 4 -7
v 15 4 -12
v 15 4 -17
v 15 8 -2
v 15 8 -7
v 15 8 -12
v 15 8 -17
v 15 12 -2
v 15 12 -7
v 15 12 -12
v 15 12 -17
v 15 16 -2
v 15 16 -7
v 15 16 -12
v 15 16 -17
v 15 20 -2
v 15 20 -7
v 15 20 -12
v 15 20 -17
v 15 24 -2
v 15 24 -7
v 15 24 -12
v 15 24 -17
v 15 28 -2
v 15 28 -7
v 15 28 -12
v 15 28 -17
v 15 32 -2
v 15 32 -7
v 15 32 -12
v 15 32 -17
v -20 0 -2
v -20 4 -2
v -20 8 -2
v -20 12 -2
v -20 16 -2
v -20 20 -2
v -20 24 -2
v -20 28 -2
v -20 32 -2
v -13 0 -2
v -13 4 -2
v -13 8 -2
v -13 12 -2
v -13 16 -2
v -13 20 -2
v -13 24 -2
v -13 28 -2
v -13 32 -2
v -6 0 -2
v -6 4 -2
v -6 8 -2
v -6 12 -2
v -6 16 -2
v -6 20 -2
v -6 24 -2
v -6 28 -2
v -6 32 -2
v 1 0 -2
v 1 4 -2
v 1 8 -2
v 1 12 -2
v 1 16 -2
v 1 20 -2
v 1 24 -2
v 1 28 -2
v 1 32 -2
v 8 0 -2
v 8 4 -2
v 8 8 -2
v 8 12 -2
v 8 16 -2
v 8 20 -2
v 8 24 -2
v 8 28 -2
v 8 32 -2
v 15 0 -2
v 15 4 -2
v 15 8 -2
v 15 12 -2
v 15 16 -2
v 15 20 -2
v 15 24 -2
v 15 28 -2
v 15 32 -2
v -20 0 -17
v -20 4 -17
v -20 8 -17
v -20 12 -17
v -20 16 -17
v -20 20 -17
v -20 24 -17
v -20 28 -17
v -20 32 -17
v -13 0 -17
v -13 4 -17
v -13 8 -17
v -13 12 -17
v -13 16 -17
v -13 20 -17
v -13 24 -17
v -13 28 -17
v -13 32 -17
v -6 0 -17
v -6 4 -17
v -6 8 -17
v -6 12 -17
v -6 16 -17
v -6 20 -17
v -6 24 -17
v -6 28 -17
v -6 32 -17
v 1 0 -17
v 1 4 -17
v 1 8 -17
v 1 12 -17
v 1 16 -17
v 1 20 -17
v 1 24 -17
v 1 28 -17
v 1 32 -17
v 8 0 -17
v 8 4 -17
v 8 8 -17
v 8 12 -17
v 8 16 -17
v 8 20 -17
v 8 24 -17
v 8 28 -17
v 8 32 -17
v 15 0 -17
v 15 4 -17
v 15 8 -17
v 15 12 -17
v 15 16 -17
v 15 20 -17
v 15 24 -17
v 15 28 -17
v 15 32 -17
v -20 0 -2
v -13 0 -2
v -6 0 -2
v 1 0 -2
v 8 0 -2
v 15 0 -2
v -20 0 -7
v -13 0 -7
v -6 0 -7
v 1 0 -7
v 8 0 -7
v 15 0 -7
v -20 0 -12
v -13 0 -12
v -6 0 -12
v 1 0 -12
v 8 0 -12
v 15 0 -12
v -20 0 -17
v -13 0 -17
v -6 0 -17
v 1 0 -17
v 8 0 -17
v 15 0 -17
v -20 32 -2
v -13 32 -2
v -6 32 -2
v 1 32 -2
v 8 32 -2
v 15 32 -2
v -20 32 -7
v -13 32 -7
v -6 32 -7
v 1 32 -7
v 8 32 -7
v 15 32 -7
v -20 32 -12
v -13 32 -12
v -6 32 -12
v 1 32 -12
v 8 32 -12
v 15 32 -12
v -20 32 -17
v -13 32 -17
v -6 32 -17
v 1 32 -17
v 8 32 -17
v 15 32 -17

# faces
f 5/2/1 2/2/1 1/2/1
f 6/1/1 3/1/1 2/1/1
f 6/2/1 2/2/1 5/2/1
f 7/2/1 4/2/1 3/2/1
f 7/1/1 3/1/1 6/1/1
f 8/2/1 4/2/1 7/2/1
f 9/1/1 6/1/1 5/1/1
f 10/2/1 7/2/1 6/2/1
f 10/1/1 6/1/1 9/1/1
f 11/1/1 8/1/1 7/1/1
f 11/2/1 7/2/1 10/2/1
f 12/1/1 8/1/1 11/1/1
f 13/2/1 10/2/1 9/2/1
f 14/1/1 11/1/1 10/1/1
f 14/2/1 10/2/1 13/2/1
f 15/2/1 12/2/1 11/2/1
f 15/1/1 11/1/1 14/1/1
f 16/2/1 12/2/1 15/2/1
f 17/1/1 14/1/1 13/1/1
f 18/2/1 15/2/1 14/2/1
f 18/1/1 14/1/1 17/1/1
f 19/1/1 16/1/1 15/1/1
f 19/2/1 15/2/1 18/2/1
f 20/1/1 16/1/1 19/1/1
f 21/2/1 18/2/1 17/2/1
f 22/1/1 19/1/1 18/1/1
f 22/2/1 18/2/1 21/2/1
f 23/2/1 20/2/1 19/2/1
f 23/1/1 19/1/1 22/1/1
f 24/2/1 20/2/1 23/2/1
f 25/1/1 22/1/1 21/1/1
f 26/2/1 23/2/1 22/2/1
f 26/1/1 22/1/1 25/1/1
f 27/1/1 24/1/1 23/1/1
f 27/2/1 23/2/1 26/2/1
f 28/1/1 24/1/1 27/1/1
f 29/2/1 26/2/1 25/2/1
f 30/1/1 27/1/1 26/1/1
f 30/2/1 26/2/1 29/2/1
f 31/2/1 28/2/1 27/2/1
f 31/1/1 27/1/1 30/1/1
f 32/2/1 28/2/1 31/2/1
f 33/1/1 30/1/1 29/1/1
f 34/2/1 31/2/1 30/2/1
f 34/1/1 30/1/1 33/1/1
f 35/1/1 32/1/1 31/1/1
f 35/2/1 31/2/1 34/2/1
f 36/1/1 32/1/1 35/1/1
f 37/2/2 38/2/2 41/2/2
f 38/1/2 39/1/2 42/1/2
f 41/2/2 38/2/2 42/2/2
f 39/2/2 40/2/2 43/2/2
f 42/1/2 39/1/2 43/1/2
f 43/2/2 40/2/2 44/2/2
f 41/1/2 42/1/2 45/1/2
f 42/2/2 43/2/2 46/2/2
f 45/1/2 42/1/2 46/1/2
f 43/1/2 44/1/2 47/1/2
f 46/2/2 43/2/2 47/2/2
f 47/1/2 44/1/2 48/1/2
f 45/2/2 46/2/2 49/2/2
f 46/1/2 47/1/2 50/1/2
f 49/2/2 46/2/2 50/2/2
f 47/2/2 48/2/2 51/2/2
f 50/1/2 47/1/2 51/1/2
f 51/2/2 48/2/2 52/2/2
f 49/1/2 50/1/2 53/1/2
f 50/2/2 51/2/2 54/2/2
f 53/1/2 50/1/2 54/1/2
f 51/1/2 52/1/2 55/1/2
f 54/2/2 51/2/2 55/2/2
f 55/1/2 52/1/2 56/1/2
f 53/2/2 54/2/2 57/2/2
f 54/1/2 55/1/2 58/1/2
f 57/2/2 54/2/2 58/2/2
f 55/2/2 56/2/2 59/2/2
f 58/1/2 55/1/2 59/1/2
f 59/2/2 56/2/2 60/2/2
f 57/1/2 58/1/2 61/1/2
f 58/2/2 59/2/2 62/2/2
f 61/1/2 58/1/2 62/1/2
f 59/1/2 60/1/2 63/1/2
f 62/2/2 59/2/2 63/2/2
f 63/1/2 60/1/2 64/1/2
f 61/2/2 62/2/2 65/2/2
f 62/1/2 63/1/2 66/1/2
f 65/2/2 62/2/2 66/2/2
f 63/2/2 64/2/2 67/2/2
f 66/1/2 63/1/2 67/1/2
f 67/2/2 64/2/2 68/2/2
f 65/1/2 66/1/2 69/1/2
f 66/2/2 67/2/2 70/2/2
f 69/1/2 66/1/2 70/1/2
f 67/1/2 68/1/2 71/1/2
f 70/2/2 67/2/2 71/2/2
f 71/1/2 68/1/2 72/1/2
f 82/2/3 74/2/3 73/2/3
f 83/1/3 75/1/3 74/1/3
f 83/2/3 74/2/3 82/2/3
f 84/2/3 76/2/3 75/2/3
f 84/1/3 75/1/3 83/1/3
f 85/1/3 77/1/3 76/1/3
f 85/2/3 76/2/3 84/2/3
f 86/2/3 78/2/3 77/2/3
f 86/1/3 77/1/3 85/1/3
f 87/1/3 79/1/3 78/1/3
f 87/2/3 78/2/3 86/2/3
f 88/2/3 80/2/3 79/2/3
f 88/1/3 79/1/3 87/1/3
f 89/1/3 81/1/3 80/1/3
f 89/2/3 80/2/3 88/2/3
f 90/1/3 81/1/3 89/1/3
f 91/1/3 83/1/3 82/1/3
f 92/2/3 84/2/3 83/2/3
f 92/1/3 83/1/3 91/1/3
f 93/1/3 85/1/3 84/1/3
f 93/2/3 84/2/3 92/2/3
f 94/2/3 86/2/3 85/2/3
f 94/1/3 85/1/3 93/1/3
f 95/1/3 87/1/3 86/1/3
f 95/2/3 86/2/3 94/2/3
f 96/2/3 88/2/3 87/2/3
f 96/1/3 87/1/3 95/1/3
f 97/1/3 89/1/3 88/1/3
f 97/2/3 88/2/3 96/2/3
f 98/2/3 90/2/3 89/2/3
f 98/1/3 89/1/3 97/1/3
f 99/2/3 90/2/3 98/2/3
f 100/2/3 92/2/3 91/2/3
f 101/1/3 93/1/3 92/1/3
f 101/2/3 92/2/3 100/2/3
f 102/2/3 94/2/3 93/2/3
f 102/1/3 93/1/3 101/1/3
f 103/1/3 95/1/3 94/1/3
f 103/2/3 94/2/3 102/2/3
f 104/2/3 96/2/3 95/2/3
f 104/1/3 95/1/3 103/1/3
f 105/1/3 97/1/3 96/1/3
f 105/2/3 96/2/3 104/2/3
f 106/2/3 98/2/3 97/2/3
f 106/1/3 97/1/3 105/1/3
f 107/1/3 99/1/3 98/1/3
f 107/2/3 98/2/3 106/2/3
f 108/1/3 99/1/3 107/1/3
f 109/1/3 101/1/3 100/1/3
f 110/2/3 102/2/3 101/2/3
f 110/1/3 101/1/3 109/1/3
f 111/1/3 103/1/3 102/1/3
f 111/2/3 102/2/3 110/2/3
f 112/2/3 104/2/3 103/2/3
f 112/1/3 103/1/3 111/1/3
f 113/1/3 105/1/3 104/1/3
f 113/2/3 104/2/3 112/2/3
f 114/2/3 106/2/3 105/2/3
f 114/1/3 105/1/3 113/1/3
f 115/1/3 107/1/3 106/1/3
f 115/2/3 106/2/3 114/2/3
f 116/2/3 108/2/3 107/2/3
f 116/1/3 107/1/3 115/1/3
f 117/2/3 108/2/3 116/2/3
f 118/2/3 110/2/3 109/2/3
f 119/1/3 111/1/3 110/1/3
f 119/2/3 110/2/3 118/2/3
f 120/2/3 112/2/3 111/2/3
f 120/1/3 111/1/3 119/1/3
f 121/1/3 113/1/3 112/1/3
f 121/2/3 112/2/3 120/2/3
f 122/2/3 114/2/3 113/2/3
f 122/1/3 113/1/3 121/1/3
f 123/1/3 115/1/3 114/1/3
f 123/2/3 114/2/3 122/2/3
f 124/2/3 116/2/3 115/2/3
f 124/1/3 115/1/3 123/1/3
f 125/1/3 117/1/3 116/1/3
f 125/2/3 116/2/3 124/2/3
f 126/1/3 117/1/3 125/1/3
f 127/2/4 128/2/4 136/2/4
f 128/1/4 129/1/4 137/1/4
f 136/2/4 128/2/4 137/2/4
f 129/2/4 130/2/4 138/2/4
f 137/1/4 129/1/4 138/1/4
f 130/1/4 131/1/4 139/1/4
f 138/2/4 130/2/4 139/2/4
f 131/2/4 132/2/4 140/2/4
f 139/1/4 131/1/4 140/1/4
f 132/1/4 133/1/4 141/1/4
f 140/2/4 132/2/4 141/2/4
f 133/2/4 134/2/4 142/2/4
f 141/1/4 133/1/4 142/1/4
f 134/1/4 135/1/4 143/1/4
f 142/2/4 134/2/4 143/2/4
f 143/1/4 135/1/4 144/1/4
f 136/1/4 137/1/4 145/1/4
f 137/2/4 138/2/4 146/2/4
f 145/1/4 137/1/4 146/1/4
f 138/1/4 139/1/4 147/1/4
f 146/2/4 138/2/4 147/2/4
f 139/2/4 140/2/4 148/2/4
f 147/1/4 139/1/4 148/1/4
f 140/1/4 141/1/4 149/1/4
f 148/2/4 140/2/4 149/2/4
f 141/2/4 142/2/4 150/2/4
f 149/1/4 141/1/4 150/1/4
f 142/1/4 143/1/4 151/1/4
f 150/2/4 142/2/4 151/2/4
f 143/2/4 144/2/4 152/2/4
f 151/1/4 143/1/4 152/1/4
f 152/2/4 144/2/4 153/2/4
f 145/2/4 146/2/4 154/2/4
f 146/1/4 147/1/4 155/1/4
f 154/2/4 146/2/4 155/2/4
f 147/2/4 148/2/4 156/2/4
f 155/1/4 147/1/4 156/1/4
f 148/1/4 149/1/4 157/1/4
f 156/2/4 148/2/4 157/2/4
f 149/2/4 150/2/4 158/2/4
f 157/1/4 149/1/4 158/1/4
f 150/1/4 151/1/4 159/1/4
f 158/2/4 150/2/4 159/2/4
f 151/2/4 152/2/4 160/2/4
f 159/1/4 151/1/4 160/1/4
f 152/1/4 153/1/4 161/1/4
f 160/2/4 152/2/4 161/2/4
f 161/1/4 153/1/4 162/1/4
f 154/1/4 155/1/4 163/1/4
f 155/2/4 156/2/4 164/2/4
f 163/1/4 155/1/4 164/1/4
f 156/1/4 157/1/4 165/1/4
f 164/2/4 156/2/4 165/2/4
f 157/2/4 158/2/4 166/2/4
f 165/1/4 157/1/4 166/1/4
f 158/1/4 159/1/4 167/1/4
f 166/2/4 158/2/4 167/2/4
f 159/2/4 160/2/4 168/2/4
f 167/1/4 159/1/4 168/1/4
f 160/1/4 161/1/4 169/1/4
f 168/2/4 160/2/4 169/2/4
f 161/2/4 162/2/4 170/2/4
f 169/1/4 161/1/4 170/1/4
f 170/2/4 162/2/4 171/2/4
f 163/2/4 164/2/4 172/2/4
f 164/1/4 165/1/4 173/1/4
f 172/2/4 164/2/4 173/2/4
f 165/2/4 166/2/4 174/2/4
f 173/1/4 165/1/4 174/1/4
f 166/1/4 167/1/4 175/1/4
f 174/2/4 166/2/4 175/2/4
f 167/2/4 168/2/4 176/2/4
f 175/1/4 167/1/4 176/1/4
f 168/1/4 169/1/4 177/1/4
f 176/2/4 168/2/4 177/2/4
f 169/2/4 170/2/4 178/2/4
f 177/1/4 169/1/4 178/1/4
f 170/1/4 171/1/4 179/1/4
f 178/2/4 170/2/4 179/2/4
f 179/1/4 171/1/4 180/1/4
f 187/2/5 182/2/5 181/2/5
f 188/1/5 183/1/5 182/1/5
f 188/2/5 182/2/5 187/2/5
f 189/2/5 184/2/5 183/2/5
f 189/1/5 183/1/5 188/1/5
f 190/1/5 185/1/5 184/1/5
f 190/2/5 184/2/5 189/2/5
f 191/2/5 186/2/5 185/2/5
f 191/1/5 185/1/5 190/1/5
f 192/2/5 186/2/5 191/2/5
f 193/1/5 188/1/5 187/1/5
f 194/2/5 189/2/5 188/2/5
f 194/1/5 188/1/5 193/1/5
f 195/1/5 190/1/5 189/1/5
f 195/2/5 189/2/5 194/2/5
f 196/2/5 191/2/5 190/2/5
f 196/1/5 190/1/5 195/1/5
f 197/1/5 192/1/5 191/1/5
f 197/2/5 191/2/5 196/2/5
f 198/1/5 192/1/5 197/1/5
f 199/2/5 194/2/5 193/2/5
f 200/1/5 195/1/5 194/1/5
f 200/2/5 194/2/5 199/2/5
f 201/2/5 196/2/5 195/2/5
f 201/1/5 195/1/5 200/1/5
f 202/1/5 197/1/5 196/1/5
f 202/2/5 196/2/5 201/2/5
f 203/2/5 198/2/5 197/2/5
f 203/1/5 197/1/5 202/1/5
f 204/2/5 198/2/5 203/2/5
f 205/1/6 206/1/6 211/1/6
f 206/2/6 207/2/6 212/2/6
f 211/1/6 206/1/6 212/1/6
f 207/1/6 208/1/6 213/1/6
f 212/2/6 207/2/6 213/2/6
f 208/2/6 209/2/6 214/2/6
f 213/1/6 208/1/6 214/1/6
f 209/1/6 210/1/6 215/1/6
f 214/2/6 209/2/6 215/2/6
f 215/1/6 210/1/6 216/1/6
f 211/2/6 212/2/6 217/2/6
f 212/1/6 213/1/6 218/1/6
f 217/2/6 212/2/6 218/2/6
f 213/2/6 214/2/6 219/2/6
f 218/1/6 213/1/6 219/1/6
f 214/1/6 215/1/6 220/1/6
f 219/2/6 214/2/6 220/2/6
f 215/2/6 216/2/6 221/2/6
f 220/1/6 215/1/6 221/1/6
f 221/2/6 216/2/6 222/2/6
f 217/1/6 218/1/6 223/1/6
f 218/2/6 219/2/6 224/2/6
f 223/1/6 218/1/6 224/1/6
f 219/1/6 220/1/6 225/1/6
f 224/2/6 219/2/6 225/2/6
f 220/2/6 221/2/6 226/2/6
f 225/1/6 220/1/6 226/1/6
f 221/1/6 222/1/6 227/1/6
f 226/2/6 221/2/6 227/2/6
f 227/1/6 222/1/6 228/1/6
