# MagicaVoxel @ Ephtracy

# group
g item_portal

# material
mtllib item_portal.mtl
usemtl palette

# normals
vn -1 0 0
vn 1 0 0
vn 0 0 1
vn 0 0 -1
vn 0 -1 0
vn 0 1 0

# texcoords
vt 0.0683594 0.5
vt 0.255859 0.5
vt 0.779297 0.5
vt 0.830078 0.5
vt 0.861328 0.5

# verts
v -8 7 -1
v -8 7 -3
v -8 15 -1
v -8 15 -3
v -7 4 -1
v -7 4 -3
v -7 7 -1
v -7 7 -3
v -7 15 -1
v -7 15 -3
v -7 18 -1
v -7 18 -3
v -6 2 -1
v -6 2 -3
v -6 4 -1
v -6 4 -3
v -6 18 -1
v -6 18 -3
v -6 20 -1
v -6 20 -3
v -5 1 -1
v -5 1 -3
v -5 2 -1
v -5 2 -3
v -5 20 -1
v -5 20 -3
v -5 21 -1
v -5 21 -3
v -4 0 -1
v -4 0 -3
v -4 1 -1
v -4 1 -3
v -4 21 -1
v -4 21 -3
v -4 22 -1
v -4 22 -3
v -3 9 -2
v -3 9 -11
v -3 10 -2
v -3 10 -11
v -3 13 3
v -3 13 -9
v -3 14 3
v -3 14 -9
v -1 2 2
v -1 2 -1
v -1 3 4
v -1 3 2
v -1 3 1
v -1 3 -1
v -1 4 5
v -1 4 4
v -1 4 3
v -1 4 1
v -1 5 6
v -1 5 5
v -1 5 2
v -1 5 -12
v -1 6 7
v -1 6 6
v -1 6 4
v -1 6 3
v -1 6 2
v -1 6 -12
v -1 7 11
v -1 7 9
v -1 7 5
v -1 7 4
v -1 8 12
v -1 8 11
v -1 8 9
v -1 8 7
v -1 9 12
v -1 9 11
v -1 9 9
v -1 9 7
v -1 9 6
v -1 9 5
v -1 10 10
v -1 10 7
v -1 10 6
v -1 11 11
v -1 11 10
v -1 11 7
v -1 11 6
v -1 12 7
v -1 12 6
v -1 13 11
v -1 13 10
v -1 13 7
v -1 13 6
v -1 14 10
v -1 14 7
v 0 11 5
v 0 11 -17
v 0 12 5
v 0 12 -17
v 1 2 9
v 1 2 7
v 1 3 9
v 1 3 7
v 1 3 4
v 1 4 7
v 1 4 5
v 1 4 4
v 1 7 2
v 1 7 1
v 1 8 4
v 1 8 2
v 1 8 1
v 1 9 6
v 1 9 5
v 1 9 4
v 1 9 2
v 1 10 6
v 1 10 4
v 1 17 -0
v 1 17 -19
v 1 18 -0
v 1 18 -19
v 3 9 2
v 3 9 -9
v 3 10 2
v 3 10 -9
v 4 14 2
v 4 14 -15
v 4 15 2
v 4 15 -15
v 5 2 -1
v 5 2 -3
v 5 4 -1
v 5 4 -3
v 5 18 -1
v 5 18 -3
v 5 20 -1
v 5 20 -3
v 6 4 -1
v 6 4 -3
v 6 7 -1
v 6 7 -3
v 6 15 -1
v 6 15 -3
v 6 18 -1
v 6 18 -3
v 7 7 -1
v 7 7 -3
v 7 15 -1
v 7 15 -3
v -6 7 -1
v -6 7 -3
v -6 15 -1
v -6 15 -3
v -5 4 -1
v -5 4 -3
v -5 7 -1
v -5 7 -3
v -5 15 -1
v -5 15 -3
v -5 18 -1
v -5 18 -3
v -4 2 -1
v -4 2 -3
v -4 4 -1
v -4 4 -3
v -4 18 -1
v -4 18 -3
v -4 20 -1
v -4 20 -3
v -2 9 -2
v -2 9 -11
v -2 10 -2
v -2 10 -11
v -2 13 3
v -2 13 -9
v -2 14 3
v -2 14 -9
v 0 2 2
v 0 2 -1
v 0 3 3
v 0 3 2
v 0 3 1
v 0 3 -1
v 0 4 3
v 0 4 1
v 0 5 2
v 0 5 -12
v 0 6 2
v 0 6 -12
v 0 7 11
v 0 7 9
v 0 8 12
v 0 8 11
v 0 8 9
v 0 8 7
v 0 9 12
v 0 9 11
v 0 9 9
v 0 9 7
v 1 11 5
v 1 11 -17
v 1 12 5
v 1 12 -17
v 2 2 9
v 2 2 7
v 2 3 9
v 2 3 7
v 2 3 3
v 2 4 7
v 2 4 5
v 2 4 3
v 2 5 6
v 2 5 5
v 2 6 7
v 2 6 6
v 2 6 4
v 2 6 3
v 2 7 5
v 2 7 4
v 2 7 2
v 2 7 1
v 2 8 4
v 2 8 2
v 2 8 1
v 2 9 6
v 2 9 5
v 2 9 4
v 2 9 2
v 2 10 10
v 2 10 7
v 2 10 6
v 2 10 4
v 2 11 11
v 2 11 10
v 2 11 7
v 2 11 6
v 2 12 7
v 2 12 6
v 2 13 11
v 2 13 10
v 2 13 7
v 2 13 6
v 2 14 10
v 2 14 7
v 2 17 -0
v 2 17 -19
v 2 18 -0
v 2 18 -19
v 4 9 2
v 4 9 -9
v 4 10 2
v 4 10 -9
v 5 0 -1
v 5 0 -3
v 5 1 -1
v 5 1 -3
v 5 14 2
v 5 14 -15
v 5 15 2
v 5 15 -15
v 5 21 -1
v 5 21 -3
v 5 22 -1
v 5 22 -3
v 6 1 -1
v 6 1 -3
v 6 2 -1
v 6 2 -3
v 6 20 -1
v 6 20 -3
v 6 21 -1
v 6 21 -3
v 7 2 -1
v 7 2 -3
v 7 4 -1
v 7 4 -3
v 7 18 -1
v 7 18 -3
v 7 20 -1
v 7 20 -3
v 8 4 -1
v 8 4 -3
v 8 7 -1
v 8 7 -3
v 8 15 -1
v 8 15 -3
v 8 18 -1
v 8 18 -3
v 9 7 -1
v 9 7 -3
v 9 15 -1
v 9 15 -3
v -1 8 12
v -1 9 12
v 0 8 12
v 0 9 12
v -1 7 11
v -1 8 11
v -1 11 11
v -1 13 11
v 0 7 11
v 0 8 11
v 2 11 11
v 2 13 11
v -1 10 10
v -1 11 10
v -1 13 10
v -1 14 10
v 2 10 10
v 2 11 10
v 2 13 10
v 2 14 10
v -1 8 9
v -1 9 9
v 0 8 9
v 0 9 9
v 1 2 9
v 1 3 9
v 2 2 9
v 2 3 9
v -1 6 7
v -1 8 7
v -1 9 7
v -1 10 7
v 0 8 7
v 0 9 7
v 1 3 7
v 1 4 7
v 2 3 7
v 2 4 7
v 2 6 7
v 2 10 7
v -1 5 6
v -1 6 6
v 2 5 6
v 2 6 6
v -1 4 5
v -1 5 5
v 0 11 5
v 0 12 5
v 1 4 5
v 1 11 5
v 1 12 5
v 2 4 5
v 2 5 5
v -1 3 4
v -1 4 4
v 1 3 4
v 1 4 4
v 1 8 4
v 1 9 4
v 2 8 4
v 2 9 4
v -3 13 3
v -3 14 3
v -2 13 3
v -2 14 3
v -1 2 2
v -1 3 2
v -1 5 2
v -1 6 2
v 0 2 2
v 0 3 2
v 0 5 2
v 0 6 2
v 1 7 2
v 1 8 2
v 2 7 2
v 2 8 2
v 3 9 2
v 3 10 2
v 4 9 2
v 4 10 2
v 4 14 2
v 4 15 2
v 5 14 2
v 5 15 2
v 1 17 -0
v 1 18 -0
v 2 17 -0
v 2 18 -0
v -8 7 -1
v -8 15 -1
v -7 4 -1
v -7 7 -1
v -7 15 -1
v -7 18 -1
v -6 2 -1
v -6 4 -1
v -6 7 -1
v -6 15 -1
v -6 18 -1
v -6 20 -1
v -5 1 -1
v -5 2 -1
v -5 4 -1
v -5 7 -1
v -5 15 -1
v -5 18 -1
v -5 20 -1
v -5 21 -1
v -4 0 -1
v -4 1 -1
v -4 2 -1
v -4 4 -1
v -4 18 -1
v -4 20 -1
v -4 21 -1
v -4 22 -1
v -1 2 -1
v 0 2 -1
v 5 0 -1
v 5 1 -1
v 5 2 -1
v 5 4 -1
v 5 18 -1
v 5 20 -1
v 5 21 -1
v 5 22 -1
v 6 1 -1
v 6 2 -1
v 6 4 -1
v 6 7 -1
v 6 15 -1
v 6 18 -1
v 6 20 -1
v 6 21 -1
v 7 2 -1
v 7 4 -1
v 7 7 -1
v 7 15 -1
v 7 18 -1
v 7 20 -1
v 8 4 -1
v 8 7 -1
v 8 15 -1
v 8 18 -1
v 9 7 -1
v 9 15 -1
v -3 9 -2
v -3 10 -2
v -2 9 -2
v -2 10 -2
v -1 8 11
v -1 9 11
v 0 8 11
v 0 9 11
v -1 7 9
v -1 8 9
v 0 7 9
v 0 8 9
v -1 10 7
v -1 11 7
v -1 13 7
v -1 14 7
v 1 2 7
v 1 3 7
v 2 2 7
v 2 3 7
v 2 10 7
v 2 11 7
v 2 13 7
v 2 14 7
v -1 9 6
v -1 10 6
v -1 11 6
v -1 12 6
v -1 13 6
v 1 9 6
v 1 10 6
v 2 11 6
v 2 12 6
v 2 13 6
v -1 7 5
v -1 9 5
v 1 9 5
v 2 7 5
v 2 9 5
v -1 6 4
v -1 7 4
v 1 9 4
v 1 10 4
v 2 6 4
v 2 7 4
v 2 9 4
v 2 10 4
v -1 4 3
v -1 6 3
v 0 3 3
v 0 4 3
v 1 3 3
v 1 4 3
v 2 3 3
v 2 4 3
v 2 6 3
v 1 8 2
v 1 9 2
v 2 8 2
v 2 9 2
v -1 3 1
v -1 4 1
v 0 3 1
v 0 4 1
v 1 7 1
v 1 8 1
v 2 7 1
v 2 8 1
v -1 2 -1
v -1 3 -1
v 0 2 -1
v 0 3 -1
v -8 7 -3
v -8 15 -3
v -7 4 -3
v -7 7 -3
v -7 15 -3
v -7 18 -3
v -6 2 -3
v -6 4 -3
v -6 7 -3
v -6 15 -3
v -6 18 -3
v -6 20 -3
v -5 1 -3
v -5 2 -3
v -5 4 -3
v -5 7 -3
v -5 15 -3
v -5 18 -3
v -5 20 -3
v -5 21 -3
v -4 0 -3
v -4 1 -3
v -4 2 -3
v -4 4 -3
v -4 18 -3
v -4 20 -3
v -4 21 -3
v -4 22 -3
v 5 0 -3
v 5 1 -3
v 5 2 -3
v 5 4 -3
v 5 18 -3
v 5 20 -3
v 5 21 -3
v 5 22 -3
v 6 1 -3
v 6 2 -3
v 6 4 -3
v 6 7 -3
v 6 15 -3
v 6 18 -3
v 6 20 -3
v 6 21 -3
v 7 2 -3
v 7 4 -3
v 7 7 -3
v 7 15 -3
v 7 18 -3
v 7 20 -3
v 8 4 -3
v 8 7 -3
v 8 15 -3
v 8 18 -3
v 9 7 -3
v 9 15 -3
v -3 13 -9
v -3 14 -9
v -2 13 -9
v -2 14 -9
v 3 9 -9
v 3 10 -9
v 4 9 -9
v 4 10 -9
v -3 9 -11
v -3 10 -11
v -2 9 -11
v -2 10 -11
v -1 5 -12
v -1 6 -12
v 0 5 -12
v 0 6 -12
v 4 14 -15
v 4 15 -15
v 5 14 -15
v 5 15 -15
v 0 11 -17
v 0 12 -17
v 1 11 -17
v 1 12 -17
v 1 17 -19
v 1 18 -19
v 2 17 -19
v 2 18 -19
v -4 0 -1
v 5 0 -1
v -4 0 -3
v 5 0 -3
v -5 1 -1
v -4 1 -1
v 5 1 -1
v 6 1 -1
v -5 1 -3
v -4 1 -3
v 5 1 -3
v 6 1 -3
v 1 2 9
v 2 2 9
v 1 2 7
v 2 2 7
v -1 2 2
v 0 2 2
v -6 2 -1
v -5 2 -1
v -1 2 -1
v 0 2 -1
v 6 2 -1
v 7 2 -1
v -6 2 -3
v -5 2 -3
v 6 2 -3
v 7 2 -3
v 1 3 7
v 2 3 7
v -1 3 4
v 1 3 4
v 0 3 3
v 1 3 3
v 2 3 3
v -1 3 2
v 0 3 2
v -1 4 5
v 1 4 5
v -1 4 4
v 1 4 4
v -7 4 -1
v -6 4 -1
v 7 4 -1
v 8 4 -1
v -7 4 -3
v -6 4 -3
v 7 4 -3
v 8 4 -3
v -1 5 6
v 2 5 6
v -1 5 5
v 2 5 5
v -1 5 2
v 0 5 2
v -1 5 -12
v 0 5 -12
v -1 6 7
v 2 6 7
v -1 6 6
v 2 6 6
v -1 7 11
v 0 7 11
v -1 7 9
v 0 7 9
v 1 7 2
v 2 7 2
v 1 7 1
v 2 7 1
v -8 7 -1
v -7 7 -1
v 8 7 -1
v 9 7 -1
v -8 7 -3
v -7 7 -3
v 8 7 -3
v 9 7 -3
v -1 8 12
v 0 8 12
v -1 8 11
v 0 8 11
v -1 8 9
v 0 8 9
v -1 8 7
v 0 8 7
v 1 8 4
v 2 8 4
v 1 8 2
v 2 8 2
v 1 9 5
v 2 9 5
v 1 9 4
v 2 9 4
v 3 9 2
v 4 9 2
v -3 9 -2
v -2 9 -2
v 3 9 -9
v 4 9 -9
v -3 9 -11
v -2 9 -11
v -1 10 10
v 2 10 10
v 0 10 9
v 1 10 9
v 0 10 8
v 1 10 8
v -1 10 7
v 2 10 7
v -1 11 11
v 2 11 11
v -1 11 10
v 2 11 10
v -1 11 7
v 2 11 7
v -1 11 6
v 2 11 6
v 0 11 5
v 1 11 5
v 0 11 -17
v 1 11 -17
v -3 13 3
v -2 13 3
v -3 13 -9
v -2 13 -9
v 4 14 2
v 5 14 2
v 4 14 -15
v 5 14 -15
v -6 15 -1
v -5 15 -1
v 6 15 -1
v 7 15 -1
v -6 15 -3
v -5 15 -3
v 6 15 -3
v 7 15 -3
v 1 17 -0
v 2 17 -0
v 1 17 -19
v 2 17 -19
v -5 18 -1
v -4 18 -1
v 5 18 -1
v 6 18 -1
v -5 18 -3
v -4 18 -3
v 5 18 -3
v 6 18 -3
v -4 20 -1
v 5 20 -1
v -4 20 -3
v 5 20 -3
v -4 2 -1
v -1 2 -1
v 0 2 -1
v 5 2 -1
v -4 2 -3
v 5 2 -3
v 1 3 9
v 2 3 9
v 1 3 7
v 2 3 7
v -1 3 1
v 0 3 1
v -1 3 -1
v 0 3 -1
v 1 4 7
v 2 4 7
v 1 4 5
v 2 4 5
v -1 4 3
v 0 4 3
v -1 4 1
v 0 4 1
v -5 4 -1
v -4 4 -1
v 5 4 -1
v 6 4 -1
v -5 4 -3
v -4 4 -3
v 5 4 -3
v 6 4 -3
v -1 6 4
v 2 6 4
v -1 6 3
v 2 6 3
v -1 6 2
v 0 6 2
v -1 6 -12
v 0 6 -12
v -1 7 5
v 2 7 5
v -1 7 4
v 2 7 4
v -6 7 -1
v -5 7 -1
v 6 7 -1
v 7 7 -1
v -6 7 -3
v -5 7 -3
v 6 7 -3
v 7 7 -3
v -1 8 11
v 0 8 11
v -1 8 9
v 0 8 9
v 1 8 2
v 2 8 2
v 1 8 1
v 2 8 1
v -1 9 12
v 0 9 12
v -1 9 11
v 0 9 11
v -1 9 9
v 0 9 9
v -1 9 7
v 0 9 7
v -1 9 6
v 1 9 6
v -1 9 5
v 1 9 5
v 1 9 4
v 2 9 4
v 1 9 2
v 2 9 2
v -1 10 7
v 2 10 7
v -1 10 6
v 1 10 6
v 2 10 6
v 1 10 4
v 2 10 4
v 3 10 2
v 4 10 2
v -3 10 -2
v -2 10 -2
v 3 10 -9
v 4 10 -9
v -3 10 -11
v -2 10 -11
v 0 12 5
v 1 12 5
v 0 12 -17
v 1 12 -17
v -1 13 11
v 2 13 11
v -1 13 10
v 2 13 10
v -1 13 7
v 2 13 7
v -1 13 6
v 2 13 6
v -1 14 10
v 2 14 10
v -1 14 7
v 2 14 7
v -3 14 3
v -2 14 3
v -3 14 -9
v -2 14 -9
v 4 15 2
v 5 15 2
v -8 15 -1
v -7 15 -1
v 8 15 -1
v 9 15 -1
v -8 15 -3
v -7 15 -3
v 8 15 -3
v 9 15 -3
v 4 15 -15
v 5 15 -15
v 1 18 -0
v 2 18 -0
v -7 18 -1
v -6 18 -1
v 7 18 -1
v 8 18 -1
v -7 18 -3
v -6 18 -3
v 7 18 -3
v 8 18 -3
v 1 18 -19
v 2 18 -19
v -6 20 -1
v -5 20 -1
v 6 20 -1
v 7 20 -1
v -6 20 -3
v -5 20 -3
v 6 20 -3
v 7 20 -3
v -5 21 -1
v -4 21 -1
v 5 21 -1
v 6 21 -1
v -5 21 -3
v -4 21 -3
v 5 21 -3
v 6 21 -3
v -4 22 -1
v 5 22 -1
v -4 22 -3
v 5 22 -3

# faces
f 3/1/1 2/1/1 1/1/1
f 4/1/1 2/1/1 3/1/1
f 7/1/1 6/1/1 5/1/1
f 8/1/1 6/1/1 7/1/1
f 11/1/1 10/1/1 9/1/1
f 12/1/1 10/1/1 11/1/1
f 15/1/1 14/1/1 13/1/1
f 16/1/1 14/1/1 15/1/1
f 19/1/1 18/1/1 17/1/1
f 20/1/1 18/1/1 19/1/1
f 23/1/1 22/1/1 21/1/1
f 24/1/1 22/1/1 23/1/1
f 27/1/1 26/1/1 25/1/1
f 28/1/1 26/1/1 27/1/1
f 31/1/1 30/1/1 29/1/1
f 32/1/1 30/1/1 31/1/1
f 35/1/1 34/1/1 33/1/1
f 36/1/1 34/1/1 35/1/1
f 39/3/1 38/3/1 37/3/1
f 40/3/1 38/3/1 39/3/1
f 43/3/1 42/3/1 41/3/1
f 44/3/1 42/3/1 43/3/1
f 48/2/1 46/2/1 45/2/1
f 49/2/1 46/2/1 48/2/1
f 50/2/1 46/2/1 49/2/1
f 52/2/1 48/2/1 47/2/1
f 52/2/1 49/2/1 48/2/1
f 53/2/1 49/2/1 52/2/1
f 54/2/1 49/2/1 53/2/1
f 56/2/1 52/2/1 51/2/1
f 56/2/1 53/2/1 52/2/1
f 60/2/1 56/2/1 55/2/1
f 61/2/1 53/2/1 56/2/1
f 61/2/1 56/2/1 60/2/1
f 62/2/1 53/2/1 61/2/1
f 63/3/1 58/3/1 57/3/1
f 64/3/1 58/3/1 63/3/1
f 67/2/1 60/2/1 59/2/1
f 67/2/1 61/2/1 60/2/1
f 68/2/1 61/2/1 67/2/1
f 70/2/1 66/2/1 65/2/1
f 71/2/1 66/2/1 70/2/1
f 72/2/1 67/2/1 59/2/1
f 73/2/1 70/2/1 69/2/1
f 74/2/1 70/2/1 73/2/1
f 75/2/1 72/2/1 71/2/1
f 76/2/1 67/2/1 72/2/1
f 76/2/1 72/2/1 75/2/1
f 77/2/1 67/2/1 76/2/1
f 78/2/1 67/2/1 77/2/1
f 80/2/1 77/2/1 76/2/1
f 81/2/1 77/2/1 80/2/1
f 83/2/1 80/2/1 79/2/1
f 84/2/1 80/2/1 83/2/1
f 86/2/1 83/2/1 82/2/1
f 86/2/1 85/2/1 84/2/1
f 86/2/1 84/2/1 83/2/1
f 87/2/1 85/2/1 86/2/1
f 88/2/1 86/2/1 82/2/1
f 89/2/1 86/2/1 88/2/1
f 90/5/1 87/5/1 86/5/1
f 90/2/1 86/2/1 89/2/1
f 91/5/1 87/5/1 90/5/1
f 92/5/1 90/5/1 89/5/1
f 93/5/1 90/5/1 92/5/1
f 96/3/1 95/3/1 94/3/1
f 97/3/1 95/3/1 96/3/1
f 100/5/1 99/5/1 98/5/1
f 101/5/1 99/5/1 100/5/1
f 103/5/1 102/5/1 101/5/1
f 104/5/1 102/5/1 103/5/1
f 105/5/1 102/5/1 104/5/1
f 109/5/1 107/5/1 106/5/1
f 110/5/1 107/5/1 109/5/1
f 113/5/1 109/5/1 108/5/1
f 114/5/1 109/5/1 113/5/1
f 115/5/1 112/5/1 111/5/1
f 115/5/1 113/5/1 112/5/1
f 116/5/1 113/5/1 115/5/1
f 119/3/1 118/3/1 117/3/1
f 120/3/1 118/3/1 119/3/1
f 123/3/1 122/3/1 121/3/1
f 124/3/1 122/3/1 123/3/1
f 127/3/1 126/3/1 125/3/1
f 128/3/1 126/3/1 127/3/1
f 131/4/1 130/4/1 129/4/1
f 132/4/1 130/4/1 131/4/1
f 135/4/1 134/4/1 133/4/1
f 136/4/1 134/4/1 135/4/1
f 139/4/1 138/4/1 137/4/1
f 140/4/1 138/4/1 139/4/1
f 143/4/1 142/4/1 141/4/1
f 144/4/1 142/4/1 143/4/1
f 147/4/1 146/4/1 145/4/1
f 148/4/1 146/4/1 147/4/1
f 149/4/2 150/4/2 151/4/2
f 151/4/2 150/4/2 152/4/2
f 153/4/2 154/4/2 155/4/2
f 155/4/2 154/4/2 156/4/2
f 157/4/2 158/4/2 159/4/2
f 159/4/2 158/4/2 160/4/2
f 161/4/2 162/4/2 163/4/2
f 163/4/2 162/4/2 164/4/2
f 165/4/2 166/4/2 167/4/2
f 167/4/2 166/4/2 168/4/2
f 169/3/2 170/3/2 171/3/2
f 171/3/2 170/3/2 172/3/2
f 173/3/2 174/3/2 175/3/2
f 175/3/2 174/3/2 176/3/2
f 177/2/2 178/2/2 180/2/2
f 180/2/2 178/2/2 181/2/2
f 181/2/2 178/2/2 182/2/2
f 179/2/2 180/2/2 183/2/2
f 180/2/2 181/2/2 183/2/2
f 183/2/2 181/2/2 184/2/2
f 185/3/2 186/3/2 187/3/2
f 187/3/2 186/3/2 188/3/2
f 189/2/2 190/2/2 192/2/2
f 192/2/2 190/2/2 193/2/2
f 191/2/2 192/2/2 195/2/2
f 195/2/2 192/2/2 196/2/2
f 193/2/2 194/2/2 197/2/2
f 197/2/2 194/2/2 198/2/2
f 199/3/2 200/3/2 201/3/2
f 201/3/2 200/3/2 202/3/2
f 203/5/2 204/5/2 205/5/2
f 205/5/2 204/5/2 206/5/2
f 206/5/2 207/5/2 208/5/2
f 208/5/2 207/5/2 209/5/2
f 209/5/2 207/5/2 210/5/2
f 209/2/2 210/2/2 212/2/2
f 211/2/2 212/2/2 214/2/2
f 212/2/2 210/2/2 215/2/2
f 214/2/2 212/2/2 215/2/2
f 215/2/2 210/2/2 216/2/2
f 213/2/2 214/2/2 217/2/2
f 214/2/2 215/2/2 217/2/2
f 217/2/2 215/2/2 218/2/2
f 219/5/2 220/5/2 222/5/2
f 222/5/2 220/5/2 223/5/2
f 213/2/2 217/2/2 224/2/2
f 224/2/2 217/2/2 225/2/2
f 221/5/2 222/5/2 226/5/2
f 226/5/2 222/5/2 227/5/2
f 213/2/2 224/2/2 229/2/2
f 224/5/2 225/5/2 230/5/2
f 225/5/2 226/5/2 230/5/2
f 229/2/2 224/2/2 230/2/2
f 230/5/2 226/5/2 231/5/2
f 228/2/2 229/2/2 233/2/2
f 233/2/2 229/2/2 234/2/2
f 232/2/2 233/2/2 236/2/2
f 234/2/2 235/2/2 236/2/2
f 233/2/2 234/2/2 236/2/2
f 236/2/2 235/2/2 237/2/2
f 232/2/2 236/2/2 238/2/2
f 238/2/2 236/2/2 239/2/2
f 236/5/2 237/5/2 240/5/2
f 239/2/2 236/2/2 240/2/2
f 240/5/2 237/5/2 241/5/2
f 239/5/2 240/5/2 242/5/2
f 242/5/2 240/5/2 243/5/2
f 244/3/2 245/3/2 246/3/2
f 246/3/2 245/3/2 247/3/2
f 248/3/2 249/3/2 250/3/2
f 250/3/2 249/3/2 251/3/2
f 252/1/2 253/1/2 254/1/2
f 254/1/2 253/1/2 255/1/2
f 256/3/2 257/3/2 258/3/2
f 258/3/2 257/3/2 259/3/2
f 260/1/2 261/1/2 262/1/2
f 262/1/2 261/1/2 263/1/2
f 264/1/2 265/1/2 266/1/2
f 266/1/2 265/1/2 267/1/2
f 268/1/2 269/1/2 270/1/2
f 270/1/2 269/1/2 271/1/2
f 272/1/2 273/1/2 274/1/2
f 274/1/2 273/1/2 275/1/2
f 276/1/2 277/1/2 278/1/2
f 278/1/2 277/1/2 279/1/2
f 280/1/2 281/1/2 282/1/2
f 282/1/2 281/1/2 283/1/2
f 284/1/2 285/1/2 286/1/2
f 286/1/2 285/1/2 287/1/2
f 288/1/2 289/1/2 290/1/2
f 290/1/2 289/1/2 291/1/2
f 294/2/3 293/2/3 292/2/3
f 295/2/3 293/2/3 294/2/3
f 300/2/3 297/2/3 296/2/3
f 301/2/3 297/2/3 300/2/3
f 302/2/3 299/2/3 298/2/3
f 303/2/3 299/2/3 302/2/3
f 308/2/3 305/2/3 304/2/3
f 309/2/3 305/2/3 308/2/3
f 310/5/3 307/5/3 306/5/3
f 311/5/3 307/5/3 310/5/3
f 314/2/3 313/2/3 312/2/3
f 315/2/3 313/2/3 314/2/3
f 318/5/3 317/5/3 316/5/3
f 319/5/3 317/5/3 318/5/3
f 324/2/3 321/2/3 320/2/3
f 325/2/3 323/2/3 322/2/3
f 328/5/3 327/5/3 326/5/3
f 329/5/3 327/5/3 328/5/3
f 330/2/3 324/2/3 320/2/3
f 330/2/3 325/2/3 324/2/3
f 331/2/3 323/2/3 325/2/3
f 331/2/3 325/2/3 330/2/3
f 334/2/3 333/2/3 332/2/3
f 335/2/3 333/2/3 334/2/3
f 340/2/3 337/2/3 336/2/3
f 341/3/3 339/3/3 338/3/3
f 342/3/3 339/3/3 341/3/3
f 343/2/3 337/2/3 340/2/3
f 344/2/3 337/2/3 343/2/3
f 347/2/3 346/2/3 345/2/3
f 348/2/3 346/2/3 347/2/3
f 351/5/3 350/5/3 349/5/3
f 352/5/3 350/5/3 351/5/3
f 355/3/3 354/3/3 353/3/3
f 356/3/3 354/3/3 355/3/3
f 361/2/3 358/2/3 357/2/3
f 362/2/3 358/2/3 361/2/3
f 363/3/3 360/3/3 359/3/3
f 364/3/3 360/3/3 363/3/3
f 367/5/3 366/5/3 365/5/3
f 368/5/3 366/5/3 367/5/3
f 371/3/3 370/3/3 369/3/3
f 372/3/3 370/3/3 371/3/3
f 375/3/3 374/3/3 373/3/3
f 376/3/3 374/3/3 375/3/3
f 379/3/3 378/3/3 377/3/3
f 380/3/3 378/3/3 379/3/3
f 384/1/3 382/1/3 381/1/3
f 385/1/3 382/1/3 384/1/3
f 388/1/3 384/1/3 383/1/3
f 389/4/3 385/4/3 384/4/3
f 389/1/3 384/1/3 388/1/3
f 390/1/3 386/1/3 385/1/3
f 390/4/3 385/4/3 389/4/3
f 391/1/3 386/1/3 390/1/3
f 394/1/3 388/1/3 387/1/3
f 395/4/3 389/4/3 388/4/3
f 395/1/3 388/1/3 394/1/3
f 396/4/3 389/4/3 395/4/3
f 397/4/3 391/4/3 390/4/3
f 398/1/3 392/1/3 391/1/3
f 398/4/3 391/4/3 397/4/3
f 399/1/3 392/1/3 398/1/3
f 402/1/3 394/1/3 393/1/3
f 403/4/3 395/4/3 394/4/3
f 403/1/3 394/1/3 402/1/3
f 404/4/3 395/4/3 403/4/3
f 405/4/3 399/4/3 398/4/3
f 406/1/3 400/1/3 399/1/3
f 406/4/3 399/4/3 405/4/3
f 407/1/3 400/1/3 406/1/3
f 409/4/3 403/4/3 402/4/3
f 410/4/3 409/4/3 402/4/3
f 411/1/3 402/1/3 401/1/3
f 412/4/3 410/4/3 402/4/3
f 412/1/3 402/1/3 411/1/3
f 413/4/3 410/4/3 412/4/3
f 416/4/3 407/4/3 406/4/3
f 417/1/3 408/1/3 407/1/3
f 417/4/3 407/4/3 416/4/3
f 418/1/3 408/1/3 417/1/3
f 419/1/3 413/1/3 412/1/3
f 420/4/3 414/4/3 413/4/3
f 420/1/3 413/1/3 419/1/3
f 421/4/3 414/4/3 420/4/3
f 424/4/3 416/4/3 415/4/3
f 425/1/3 417/1/3 416/1/3
f 425/4/3 416/4/3 424/4/3
f 426/1/3 417/1/3 425/1/3
f 427/1/3 421/1/3 420/1/3
f 428/4/3 422/4/3 421/4/3
f 428/1/3 421/1/3 427/1/3
f 429/4/3 422/4/3 428/4/3
f 430/4/3 424/4/3 423/4/3
f 431/1/3 425/1/3 424/1/3
f 431/4/3 424/4/3 430/4/3
f 432/1/3 425/1/3 431/1/3
f 433/1/3 429/1/3 428/1/3
f 434/4/3 430/4/3 429/4/3
f 434/1/3 429/1/3 433/1/3
f 435/1/3 431/1/3 430/1/3
f 435/4/3 430/4/3 434/4/3
f 436/1/3 431/1/3 435/1/3
f 437/1/3 435/1/3 434/1/3
f 438/1/3 435/1/3 437/1/3
f 441/3/3 440/3/3 439/3/3
f 442/3/3 440/3/3 441/3/3
f 443/2/4 444/2/4 445/2/4
f 445/2/4 444/2/4 446/2/4
f 447/2/4 448/2/4 449/2/4
f 449/2/4 448/2/4 450/2/4
f 455/5/4 456/5/4 457/5/4
f 457/5/4 456/5/4 458/5/4
f 451/2/4 452/2/4 459/2/4
f 459/2/4 452/2/4 460/2/4
f 453/5/4 454/5/4 461/5/4
f 461/5/4 454/5/4 462/5/4
f 463/2/4 464/2/4 468/2/4
f 468/2/4 464/2/4 469/2/4
f 465/2/4 466/2/4 470/2/4
f 466/5/4 467/5/4 471/5/4
f 470/2/4 466/2/4 471/2/4
f 471/5/4 467/5/4 472/5/4
f 473/2/4 474/2/4 475/2/4
f 473/2/4 475/2/4 476/2/4
f 476/2/4 475/2/4 477/2/4
f 478/2/4 479/2/4 482/2/4
f 482/2/4 479/2/4 483/2/4
f 480/5/4 481/5/4 484/5/4
f 484/5/4 481/5/4 485/5/4
f 486/2/4 487/2/4 489/2/4
f 488/2/4 489/2/4 490/2/4
f 489/2/4 487/2/4 491/2/4
f 490/2/4 489/2/4 491/2/4
f 490/5/4 491/5/4 492/5/4
f 491/2/4 487/2/4 493/2/4
f 492/5/4 491/5/4 493/5/4
f 493/2/4 487/2/4 494/2/4
f 495/5/4 496/5/4 497/5/4
f 497/5/4 496/5/4 498/5/4
f 499/2/4 500/2/4 501/2/4
f 501/2/4 500/2/4 502/2/4
f 503/5/4 504/5/4 505/5/4
f 505/5/4 504/5/4 506/5/4
f 507/2/4 508/2/4 509/2/4
f 509/2/4 508/2/4 510/2/4
f 511/1/4 512/1/4 514/1/4
f 514/1/4 512/1/4 515/1/4
f 513/1/4 514/1/4 518/1/4
f 514/4/4 515/4/4 519/4/4
f 518/1/4 514/1/4 519/1/4
f 515/1/4 516/1/4 520/1/4
f 519/4/4 515/4/4 520/4/4
f 520/1/4 516/1/4 521/1/4
f 517/1/4 518/1/4 524/1/4
f 518/4/4 519/4/4 525/4/4
f 524/1/4 518/1/4 525/1/4
f 525/4/4 519/4/4 526/4/4
f 520/4/4 521/4/4 527/4/4
f 521/1/4 522/1/4 528/1/4
f 527/4/4 521/4/4 528/4/4
f 528/1/4 522/1/4 529/1/4
f 523/1/4 524/1/4 532/1/4
f 524/4/4 525/4/4 533/4/4
f 532/1/4 524/1/4 533/1/4
f 533/4/4 525/4/4 534/4/4
f 528/4/4 529/4/4 535/4/4
f 529/1/4 530/1/4 536/1/4
f 535/4/4 529/4/4 536/4/4
f 536/1/4 530/1/4 537/1/4
f 531/1/4 532/1/4 539/1/4
f 532/4/4 533/4/4 540/4/4
f 539/1/4 532/1/4 540/1/4
f 540/4/4 533/4/4 541/4/4
f 536/4/4 537/4/4 544/4/4
f 537/1/4 538/1/4 545/1/4
f 544/4/4 537/4/4 545/4/4
f 545/1/4 538/1/4 546/1/4
f 540/1/4 541/1/4 547/1/4
f 541/4/4 542/4/4 548/4/4
f 547/1/4 541/1/4 548/1/4
f 548/4/4 542/4/4 549/4/4
f 543/4/4 544/4/4 552/4/4
f 544/1/4 545/1/4 553/1/4
f 552/4/4 544/4/4 553/4/4
f 553/1/4 545/1/4 554/1/4
f 548/1/4 549/1/4 555/1/4
f 549/4/4 550/4/4 556/4/4
f 555/1/4 549/1/4 556/1/4
f 556/4/4 550/4/4 557/4/4
f 551/4/4 552/4/4 558/4/4
f 552/1/4 553/1/4 559/1/4
f 558/4/4 552/4/4 559/4/4
f 559/1/4 553/1/4 560/1/4
f 556/1/4 557/1/4 561/1/4
f 557/4/4 558/4/4 562/4/4
f 561/1/4 557/1/4 562/1/4
f 558/1/4 559/1/4 563/1/4
f 562/4/4 558/4/4 563/4/4
f 563/1/4 559/1/4 564/1/4
f 562/1/4 563/1/4 565/1/4
f 565/1/4 563/1/4 566/1/4
f 567/3/4 568/3/4 569/3/4
f 569/3/4 568/3/4 570/3/4
f 571/3/4 572/3/4 573/3/4
f 573/3/4 572/3/4 574/3/4
f 575/3/4 576/3/4 577/3/4
f 577/3/4 576/3/4 578/3/4
f 579/3/4 580/3/4 581/3/4
f 581/3/4 580/3/4 582/3/4
f 583/3/4 584/3/4 585/3/4
f 585/3/4 584/3/4 586/3/4
f 587/3/4 588/3/4 589/3/4
f 589/3/4 588/3/4 590/3/4
f 591/3/4 592/3/4 593/3/4
f 593/3/4 592/3/4 594/3/4
f 597/1/5 596/1/5 595/1/5
f 598/1/5 596/1/5 597/1/5
f 603/1/5 600/1/5 599/1/5
f 604/1/5 600/1/5 603/1/5
f 605/1/5 602/1/5 601/1/5
f 606/1/5 602/1/5 605/1/5
f 609/5/5 608/5/5 607/5/5
f 610/5/5 608/5/5 609/5/5
f 615/2/5 612/2/5 611/2/5
f 616/2/5 612/2/5 615/2/5
f 619/1/5 614/1/5 613/1/5
f 620/1/5 614/1/5 619/1/5
f 621/1/5 618/1/5 617/1/5
f 622/1/5 618/1/5 621/1/5
f 626/5/5 624/5/5 623/5/5
f 627/2/5 626/2/5 625/2/5
f 628/5/5 624/5/5 626/5/5
f 628/2/5 626/2/5 627/2/5
f 629/5/5 624/5/5 628/5/5
f 630/2/5 627/2/5 625/2/5
f 631/2/5 627/2/5 630/2/5
f 634/2/5 633/2/5 632/2/5
f 635/2/5 633/2/5 634/2/5
f 640/1/5 637/1/5 636/1/5
f 641/1/5 637/1/5 640/1/5
f 642/1/5 639/1/5 638/1/5
f 643/1/5 639/1/5 642/1/5
f 646/2/5 645/2/5 644/2/5
f 647/2/5 645/2/5 646/2/5
f 650/3/5 649/3/5 648/3/5
f 651/3/5 649/3/5 650/3/5
f 654/2/5 653/2/5 652/2/5
f 655/2/5 653/2/5 654/2/5
f 658/2/5 657/2/5 656/2/5
f 659/2/5 657/2/5 658/2/5
f 662/5/5 661/5/5 660/5/5
f 663/5/5 661/5/5 662/5/5
f 668/1/5 665/1/5 664/1/5
f 669/1/5 665/1/5 668/1/5
f 670/1/5 667/1/5 666/1/5
f 671/1/5 667/1/5 670/1/5
f 674/2/5 673/2/5 672/2/5
f 675/2/5 673/2/5 674/2/5
f 678/2/5 677/2/5 676/2/5
f 679/2/5 677/2/5 678/2/5
f 682/5/5 681/5/5 680/5/5
f 683/5/5 681/5/5 682/5/5
f 686/5/5 685/5/5 684/5/5
f 687/5/5 685/5/5 686/5/5
f 692/3/5 689/3/5 688/3/5
f 693/3/5 689/3/5 692/3/5
f 694/3/5 691/3/5 690/3/5
f 695/3/5 691/3/5 694/3/5
f 698/2/5 697/2/5 696/2/5
f 699/2/5 697/2/5 698/2/5
f 700/2/5 698/2/5 696/2/5
f 700/5/5 699/5/5 698/5/5
f 701/2/5 697/2/5 699/2/5
f 701/5/5 699/5/5 700/5/5
f 702/2/5 700/2/5 696/2/5
f 702/2/5 701/2/5 700/2/5
f 703/2/5 697/2/5 701/2/5
f 703/2/5 701/2/5 702/2/5
f 706/2/5 705/2/5 704/2/5
f 707/2/5 705/2/5 706/2/5
f 710/2/5 709/2/5 708/2/5
f 711/2/5 709/2/5 710/2/5
f 714/3/5 713/3/5 712/3/5
f 715/3/5 713/3/5 714/3/5
f 718/3/5 717/3/5 716/3/5
f 719/3/5 717/3/5 718/3/5
f 722/3/5 721/3/5 720/3/5
f 723/3/5 721/3/5 722/3/5
f 728/4/5 725/4/5 724/4/5
f 729/4/5 725/4/5 728/4/5
f 730/4/5 727/4/5 726/4/5
f 731/4/5 727/4/5 730/4/5
f 734/3/5 733/3/5 732/3/5
f 735/3/5 733/3/5 734/3/5
f 740/4/5 737/4/5 736/4/5
f 741/4/5 737/4/5 740/4/5
f 742/4/5 739/4/5 738/4/5
f 743/4/5 739/4/5 742/4/5
f 746/4/5 745/4/5 744/4/5
f 747/4/5 745/4/5 746/4/5
f 748/4/6 749/4/6 752/4/6
f 750/4/6 751/4/6 752/4/6
f 749/4/6 750/4/6 752/4/6
f 752/4/6 751/4/6 753/4/6
f 754/5/6 755/5/6 756/5/6
f 756/5/6 755/5/6 757/5/6
f 758/2/6 759/2/6 760/2/6
f 760/2/6 759/2/6 761/2/6
f 762/5/6 763/5/6 764/5/6
f 764/5/6 763/5/6 765/5/6
f 766/2/6 767/2/6 768/2/6
f 768/2/6 767/2/6 769/2/6
f 770/4/6 771/4/6 774/4/6
f 774/4/6 771/4/6 775/4/6
f 772/4/6 773/4/6 776/4/6
f 776/4/6 773/4/6 777/4/6
f 778/2/6 779/2/6 780/2/6
f 780/2/6 779/2/6 781/2/6
f 782/3/6 783/3/6 784/3/6
f 784/3/6 783/3/6 785/3/6
f 786/2/6 787/2/6 788/2/6
f 788/2/6 787/2/6 789/2/6
f 790/4/6 791/4/6 794/4/6
f 794/4/6 791/4/6 795/4/6
f 792/4/6 793/4/6 796/4/6
f 796/4/6 793/4/6 797/4/6
f 798/2/6 799/2/6 800/2/6
f 800/2/6 799/2/6 801/2/6
f 802/5/6 803/5/6 804/5/6
f 804/5/6 803/5/6 805/5/6
f 806/2/6 807/2/6 808/2/6
f 808/2/6 807/2/6 809/2/6
f 810/2/6 811/2/6 812/2/6
f 812/2/6 811/2/6 813/2/6
f 814/2/6 815/2/6 816/2/6
f 816/2/6 815/2/6 817/2/6
f 818/5/6 819/5/6 820/5/6
f 820/5/6 819/5/6 821/5/6
f 822/2/6 823/2/6 824/2/6
f 824/2/6 823/2/6 825/2/6
f 825/2/6 823/2/6 826/2/6
f 825/5/6 826/5/6 827/5/6
f 827/5/6 826/5/6 828/5/6
f 829/3/6 830/3/6 833/3/6
f 833/3/6 830/3/6 834/3/6
f 831/3/6 832/3/6 835/3/6
f 835/3/6 832/3/6 836/3/6
f 837/3/6 838/3/6 839/3/6
f 839/3/6 838/3/6 840/3/6
f 841/2/6 842/2/6 843/2/6
f 843/2/6 842/2/6 844/2/6
f 845/5/6 846/5/6 847/5/6
f 847/5/6 846/5/6 848/5/6
f 849/5/6 850/5/6 851/5/6
f 851/5/6 850/5/6 852/5/6
f 853/3/6 854/3/6 855/3/6
f 855/3/6 854/3/6 856/3/6
f 859/1/6 860/1/6 863/1/6
f 863/1/6 860/1/6 864/1/6
f 861/1/6 862/1/6 865/1/6
f 865/1/6 862/1/6 866/1/6
f 857/3/6 858/3/6 867/3/6
f 867/3/6 858/3/6 868/3/6
f 871/1/6 872/1/6 875/1/6
f 875/1/6 872/1/6 876/1/6
f 873/1/6 874/1/6 877/1/6
f 877/1/6 874/1/6 878/1/6
f 869/3/6 870/3/6 879/3/6
f 879/3/6 870/3/6 880/3/6
f 881/1/6 882/1/6 885/1/6
f 885/1/6 882/1/6 886/1/6
f 883/1/6 884/1/6 887/1/6
f 887/1/6 884/1/6 888/1/6
f 889/1/6 890/1/6 893/1/6
f 893/1/6 890/1/6 894/1/6
f 891/1/6 892/1/6 895/1/6
f 895/1/6 892/1/6 896/1/6
f 897/1/6 898/1/6 899/1/6
f 899/1/6 898/1/6 900/1/6
